<?xml version="1.0" encoding="UTF-8"?> <svg xmlns="http://www.w3.org/2000/svg" id="Capa_2" data-name="Capa 2" viewBox="0 0 2020.68 328.02"><defs><style> .cls-1 { fill: #fff; stroke-width: 0px; } </style></defs><g id="Capa_1-2" data-name="Capa 1"><g><g><path class="cls-1" d="m243.02,290.08v14.82h21.37v5.22h-21.37v17.23h-6.05v-42.57h30.06v5.3h-24.02Z"></path><path class="cls-1" d="m324.26,284.78h6.05v37.27h23.02v5.3h-29.07v-42.57Z"></path><path class="cls-1" d="m415.95,325.03c-3.48-1.9-6.13-4.47-8.12-7.79-1.99-3.31-2.98-7.04-2.98-11.1s.99-7.79,2.98-11.1c1.99-3.31,4.64-5.96,8.12-7.79,3.48-1.9,7.29-2.82,11.59-2.82s8.12.91,11.59,2.82c3.48,1.9,6.13,4.47,8.12,7.79,1.99,3.31,2.9,7.04,2.9,11.18s-.99,7.87-2.9,11.18c-1.99,3.31-4.64,5.88-8.12,7.79-3.48,1.9-7.29,2.82-11.59,2.82-4.31-.17-8.2-1.08-11.59-2.98Zm20.04-4.72c2.48-1.41,4.47-3.4,5.88-5.88,1.41-2.48,2.15-5.3,2.15-8.36s-.75-5.88-2.15-8.36c-1.41-2.48-3.4-4.47-5.88-5.88-2.48-1.41-5.3-2.15-8.45-2.15s-5.96.75-8.53,2.15c-2.57,1.41-4.56,3.4-5.96,5.88-1.41,2.48-2.15,5.3-2.15,8.36s.75,5.88,2.15,8.36c1.41,2.48,3.4,4.47,5.96,5.88,2.57,1.41,5.38,2.15,8.53,2.15,3.15,0,5.96-.75,8.45-2.15Z"></path><path class="cls-1" d="m515.74,325.03c-3.48-1.9-6.13-4.47-8.12-7.79-1.99-3.31-2.98-7.04-2.98-11.1s.99-7.79,2.98-11.1c1.99-3.31,4.64-5.96,8.12-7.79,3.48-1.9,7.29-2.82,11.59-2.82s8.12.91,11.59,2.82c3.48,1.9,6.13,4.47,8.12,7.79,1.99,3.31,2.9,7.04,2.9,11.18s-.99,7.87-2.9,11.18c-1.99,3.31-4.64,5.88-8.12,7.79-3.48,1.9-7.29,2.82-11.59,2.82-4.31-.17-8.2-1.08-11.59-2.98Zm20.04-4.72c2.48-1.41,4.47-3.4,5.88-5.88,1.41-2.48,2.15-5.3,2.15-8.36s-.75-5.88-2.15-8.36c-1.41-2.48-3.4-4.47-5.88-5.88-2.48-1.41-5.3-2.15-8.45-2.15s-5.96.75-8.53,2.15c-2.57,1.41-4.56,3.4-5.96,5.88-1.41,2.48-2.15,5.3-2.15,8.36s.75,5.88,2.15,8.36c1.41,2.48,3.4,4.47,5.96,5.88,2.57,1.41,5.38,2.15,8.53,2.15,3.15,0,5.96-.75,8.45-2.15Z"></path><path class="cls-1" d="m636.41,327.35l-9.19-13.09c-1.16.08-2.07.08-2.65.08h-10.52v13h-6.05v-42.57h16.65c5.55,0,9.86,1.33,13,3.98,3.15,2.65,4.72,6.29,4.72,10.93,0,3.31-.83,6.05-2.4,8.36-1.57,2.32-3.98,3.98-6.96,5.05l10.1,14.33h-6.71v-.08Zm-3.23-20.62c1.99-1.66,3.06-4.06,3.06-7.12s-.99-5.47-3.06-7.12c-2.07-1.66-4.97-2.48-8.86-2.48h-10.35v19.13h10.35c3.89.08,6.79-.75,8.86-2.4Z"></path><path class="cls-1" d="m700.85,284.78h6.05v42.57h-6.05v-42.57Z"></path><path class="cls-1" d="m805.04,284.78v42.57h-4.97l-25.59-31.8v31.8h-6.05v-42.57h4.97l25.59,31.8v-31.8h6.05Z"></path><path class="cls-1" d="m895.97,305.82h5.88v16.65c-2.07,1.74-4.56,3.06-7.37,3.98-2.82.91-5.71,1.41-8.78,1.41-4.31,0-8.2-.91-11.59-2.82-3.48-1.9-6.13-4.47-8.12-7.79-1.99-3.31-2.98-7.04-2.98-11.18s.99-7.87,2.98-11.18c1.99-3.31,4.72-5.96,8.12-7.79,3.48-1.9,7.37-2.82,11.68-2.82,3.4,0,6.46.58,9.28,1.66,2.82,1.08,5.13,2.73,7.12,4.89l-3.81,3.81c-3.4-3.31-7.54-4.97-12.34-4.97-3.23,0-6.13.66-8.7,2.07-2.57,1.41-4.56,3.31-6.05,5.88-1.49,2.48-2.15,5.3-2.15,8.45s.75,5.88,2.15,8.36c1.49,2.48,3.48,4.47,6.05,5.88,2.57,1.41,5.47,2.15,8.7,2.15,3.81,0,7.12-.91,9.94-2.73v-13.91h0Z"></path><path class="cls-1" d="m1027.16,284.78h17.97c4.47,0,8.53.91,12.01,2.65,3.48,1.82,6.21,4.31,8.12,7.54,1.9,3.23,2.9,6.96,2.9,11.1s-.99,7.87-2.9,11.1c-1.9,3.23-4.64,5.71-8.12,7.54-3.48,1.82-7.45,2.65-12.01,2.65h-17.97v-42.57Zm17.64,37.27c3.48,0,6.46-.66,9.11-1.99,2.65-1.33,4.64-3.23,6.05-5.63,1.41-2.4,2.15-5.22,2.15-8.36s-.75-5.96-2.15-8.36c-1.41-2.4-3.48-4.31-6.05-5.63-2.65-1.33-5.63-1.99-9.11-1.99h-11.51v31.97h11.51Z"></path><path class="cls-1" d="m1126.13,284.78h6.05v42.57h-6.05v-42.57Z"></path><path class="cls-1" d="m1196.78,326.36c-2.98-.99-5.3-2.32-7.04-3.89l2.24-4.72c1.66,1.49,3.73,2.65,6.21,3.56,2.57.91,5.13,1.41,7.79,1.41,3.56,0,6.13-.58,7.95-1.82,1.74-1.16,2.65-2.82,2.65-4.8,0-1.49-.5-2.65-1.41-3.56-.99-.91-2.15-1.57-3.56-2.07-1.41-.5-3.4-.99-5.96-1.66-3.23-.75-5.8-1.57-7.79-2.32-1.99-.75-3.64-1.99-5.05-3.56-1.41-1.57-2.07-3.73-2.07-6.46,0-2.24.58-4.31,1.82-6.13,1.16-1.82,2.98-3.31,5.47-4.39,2.4-1.08,5.47-1.66,9.03-1.66,2.48,0,4.97.33,7.45.99,2.4.66,4.56,1.57,6.29,2.82l-1.99,4.89c-1.82-1.16-3.73-1.99-5.71-2.57-2.07-.58-3.98-.91-5.96-.91-3.48,0-6.05.66-7.79,1.9-1.74,1.24-2.57,2.9-2.57,4.89,0,1.49.5,2.65,1.49,3.56.99.91,2.15,1.66,3.64,2.15,1.41.5,3.4,1.08,5.88,1.57,3.23.75,5.8,1.57,7.7,2.32,1.99.75,3.64,1.99,5.05,3.56,1.41,1.57,2.07,3.73,2.07,6.38,0,2.24-.58,4.31-1.82,6.13-1.24,1.82-3.06,3.31-5.55,4.39-2.48,1.08-5.55,1.57-9.11,1.57-3.23-.08-6.38-.58-9.36-1.57Z"></path><path class="cls-1" d="m1287.96,290.08h-14.58v-5.3h35.2v5.3h-14.58v37.27h-6.05v-37.27Z"></path><path class="cls-1" d="m1392.4,327.35l-9.19-13.09c-1.16.08-2.07.08-2.65.08h-10.52v13h-6.05v-42.57h16.65c5.55,0,9.86,1.33,13,3.98,3.15,2.65,4.72,6.29,4.72,10.93,0,3.31-.83,6.05-2.4,8.36-1.57,2.32-3.98,3.98-6.96,5.05l10.1,14.33h-6.71v-.08Zm-3.23-20.62c1.99-1.66,3.06-4.06,3.06-7.12s-.99-5.47-3.06-7.12c-2.07-1.66-4.97-2.48-8.86-2.48h-10.35v19.13h10.35c3.89.08,6.87-.75,8.86-2.4Z"></path><path class="cls-1" d="m1456.84,284.78h6.05v42.57h-6.05v-42.57Z"></path><path class="cls-1" d="m1558.95,309.05c1.41,1.82,2.15,4.06,2.15,6.87,0,3.73-1.41,6.54-4.14,8.53-2.82,1.99-6.79,2.98-12.17,2.98h-20.29v-42.57h19.13c4.89,0,8.61.99,11.26,2.9,2.65,1.99,3.98,4.64,3.98,8.12,0,2.24-.5,4.14-1.57,5.8-.99,1.66-2.4,2.9-4.14,3.73,2.4.58,4.31,1.82,5.8,3.64Zm-28.49-19.38v13.67h12.51c3.15,0,5.55-.58,7.21-1.74,1.66-1.16,2.48-2.82,2.48-5.05s-.83-3.89-2.48-5.05c-1.66-1.16-4.06-1.74-7.21-1.74h-12.51v-.08Zm21.78,31.06c1.74-1.16,2.65-2.9,2.65-5.38,0-4.72-3.48-7.12-10.44-7.12h-14v14.16h14c3.48.08,6.05-.5,7.79-1.66Z"></path><path class="cls-1" d="m1623.55,322.96c-3.15-3.23-4.72-7.95-4.72-14v-24.18h6.05v23.94c0,9.11,3.98,13.67,12.01,13.67,3.89,0,6.87-1.16,8.94-3.4,2.07-2.24,3.06-5.71,3.06-10.35v-23.94h5.88v24.27c0,6.13-1.57,10.77-4.72,14-3.15,3.23-7.62,4.8-13.25,4.8-5.71.08-10.1-1.57-13.25-4.8Z"></path><path class="cls-1" d="m1723.6,290.08h-14.58v-5.3h35.2v5.3h-14.58v37.27h-6.05v-37.27h0Z"></path><path class="cls-1" d="m1806.59,325.03c-3.48-1.9-6.13-4.47-8.12-7.79-1.99-3.31-2.98-7.04-2.98-11.1s.99-7.79,2.98-11.1c1.99-3.31,4.64-5.96,8.12-7.79,3.48-1.9,7.29-2.82,11.59-2.82s8.12.91,11.59,2.82c3.48,1.9,6.13,4.47,8.12,7.79,1.99,3.31,2.9,7.04,2.9,11.18s-.99,7.87-2.9,11.18c-1.99,3.31-4.64,5.88-8.12,7.79-3.48,1.9-7.29,2.82-11.59,2.82-4.31-.17-8.12-1.08-11.59-2.98Zm20.04-4.72c2.48-1.41,4.47-3.4,5.88-5.88,1.41-2.48,2.15-5.3,2.15-8.36s-.75-5.88-2.15-8.36c-1.41-2.48-3.4-4.47-5.88-5.88-2.48-1.41-5.3-2.15-8.45-2.15s-5.96.75-8.53,2.15c-2.57,1.41-4.56,3.4-5.96,5.88-1.41,2.48-2.15,5.3-2.15,8.36s.75,5.88,2.15,8.36c1.41,2.48,3.4,4.47,5.96,5.88,2.57,1.41,5.38,2.15,8.53,2.15,3.15,0,5.96-.75,8.45-2.15Z"></path><path class="cls-1" d="m1927.26,327.35l-9.19-13.09c-1.16.08-2.07.08-2.65.08h-10.52v13h-6.05v-42.57h16.65c5.55,0,9.86,1.33,13,3.98,3.15,2.65,4.72,6.29,4.72,10.93,0,3.31-.83,6.05-2.4,8.36-1.57,2.32-3.98,3.98-6.96,5.05l10.1,14.33h-6.71v-.08Zm-3.23-20.62c1.99-1.66,3.06-4.06,3.06-7.12s-.99-5.47-3.06-7.12c-2.07-1.66-4.97-2.48-8.86-2.48h-10.35v19.13h10.35c3.89.08,6.87-.75,8.86-2.4Z"></path><path class="cls-1" d="m1994.84,326.36c-2.98-.99-5.3-2.32-7.04-3.89l2.24-4.72c1.66,1.49,3.73,2.65,6.21,3.56,2.57.91,5.13,1.41,7.79,1.41,3.56,0,6.13-.58,7.95-1.82,1.74-1.16,2.65-2.82,2.65-4.8,0-1.49-.5-2.65-1.41-3.56-.99-.91-2.15-1.57-3.56-2.07-1.41-.5-3.4-.99-5.96-1.66-3.23-.75-5.8-1.57-7.79-2.32-1.99-.75-3.64-1.99-5.05-3.56-1.41-1.57-2.07-3.73-2.07-6.46,0-2.24.58-4.31,1.82-6.13,1.16-1.82,2.98-3.31,5.47-4.39,2.4-1.08,5.47-1.66,9.03-1.66,2.48,0,4.97.33,7.45.99,2.4.66,4.56,1.57,6.29,2.82l-1.99,4.89c-1.82-1.16-3.73-1.99-5.71-2.57-2.07-.58-3.98-.91-5.96-.91-3.48,0-6.05.66-7.79,1.9-1.74,1.24-2.57,2.9-2.57,4.89,0,1.49.5,2.65,1.49,3.56.99.91,2.15,1.66,3.64,2.15,1.41.5,3.4,1.08,5.88,1.57,3.23.75,5.8,1.57,7.7,2.32,1.99.75,3.64,1.99,5.05,3.56,1.41,1.57,2.07,3.73,2.07,6.38,0,2.24-.58,4.31-1.82,6.13-1.24,1.82-3.06,3.31-5.55,4.39-2.48,1.08-5.55,1.57-9.11,1.57-3.31-.08-6.38-.58-9.36-1.57Z"></path></g><g><g id="SVGID"><path class="cls-1" d="m2000.35,130.36c-9.07-7.48-19.53-12.96-31.63-16.29-11.85-3.21-27.47-6.54-46.5-9.75-23.82-3.87-42.85-9.35-57.09-16.56-14.24-7.21-21.3-17.36-21.3-30.72,0-11.62,3.78-21.1,11.47-28.18,7.81-7.21,17.64-12.42,29.74-15.49,11.97-3.21,25.07-4.81,38.94-4.81,11.09,0,20.54.67,28.1,2.14,7.56,1.2,14.12,3.34,20.04,6.28,5.8,2.81,12.22,6.81,19.41,12.02,1.26,1.07,2.39,1.87,3.4,2.27,1.01.53,1.89.8,2.9.8s2.02-.27,3.02-.8l.25-.27c.75-.94,1.13-1.74,1.13-2.81,0-1.2-.63-2.4-1.64-3.34-10.97-9.08-22.43-15.36-34.4-19.23C1954.35,1.87,1940.11,0,1923.86,0,1905.46,0,1889.45,2.27,1875.97,6.68c-13.48,4.41-23.82,10.95-31.13,19.5-7.44,8.55-11.09,18.83-11.09,30.85,0,10.15,3.28,18.7,9.45,25.78,6.3,7.08,15.75,12.96,28.23,17.63,12.48,4.68,28.61,8.55,48.27,11.62,16.88,2.8,30.75,5.74,41.71,8.55,10.97,2.81,20.8,7.48,29.49,13.89,8.69,6.54,13.11,15.23,13.11,26.04,0,12.55-3.78,22.97-11.34,31.12-7.56,8.01-17.64,13.89-30.37,17.5-12.6,3.74-26.97,5.48-42.97,5.48-18.9,0-34.9-2.54-47.89-7.48-12.98-5.08-24.07-12.55-33.4-22.31-2.02-2-3.78-2.94-5.42-2.94-.88,0-1.76.13-2.65.53l-.25.4c-1.01.8-1.51,1.74-1.51,2.94s.76,2.54,2.4,4.14c11.47,11.89,24.45,20.44,39.06,25.64,14.24,5.07,31,7.61,50.03,7.61,18.02,0,34.15-2.27,48.39-6.81,14.24-4.68,25.46-11.62,33.65-20.97,8.32-9.35,12.35-20.97,12.35-34.86,0-12.69-4.53-22.7-13.73-30.18Zm-255.06,1.6c13.86-5.48,24.95-13.76,33.52-24.71,8.57-11.09,12.85-23.24,12.85-36.86,0-12.15-3.53-23.51-10.58-33.92-7.06-10.42-16.76-18.7-28.86-24.84-12.1-6.01-25.33-9.08-39.57-9.08h-96.78c-3.15,0-4.79,1.34-4.79,4.14v209.16c0,2.94,1.64,4.41,4.79,4.41h.25c3.02,0,4.53-1.47,4.53-4.41v-78h92c7.94,0,15.5-.94,22.56-2.81l39.95,82.27c.5,1.2,1.26,2,2.27,2.4.88.4,1.76.67,2.65.67h.5c1.26,0,2.39-.4,3.4-1.34,1.01-.8,1.51-1.87,1.51-2.94,0-.27,0-.8-.25-1.6l-39.95-82.54Zm-32.77-2.67h-91.87V10.95h91.87c12.85,0,24.45,2.67,35.03,8.01,10.59,5.21,18.9,12.29,24.95,21.5,6.05,9.08,9.07,19.1,9.07,29.92s-3.02,20.7-9.07,29.65c-6.05,9.08-14.36,16.16-24.95,21.37-10.58,5.34-22.31,7.88-35.03,7.88Zm-166.22-73.86c-11.47-17.1-26.97-30.45-46.75-40.47C1479.89,5.08,1458.09,0,1434.39,0s-45.62,4.94-65.66,14.96c-19.91,10.02-35.79,23.37-47.63,40.47-11.72,17.1-17.64,35.79-17.64,56.1s5.92,38.87,17.64,55.83c11.72,16.96,27.47,30.45,47.51,40.34,20.04,9.88,41.97,14.83,65.78,14.83s45.37-5.08,65.15-14.83c19.66-9.88,35.29-23.37,46.75-40.34,11.47-16.96,17.26-35.53,17.26-55.83s-5.8-39-17.26-56.1Zm-8.82,107.65c-10.46,15.49-24.83,27.78-42.97,36.86-18.27,9.22-38.31,13.62-60.23,13.62s-42.09-4.54-60.62-13.62c-18.4-9.08-32.89-21.37-43.6-37-10.71-15.49-16-32.72-16-51.42s5.29-36.06,16-51.82c10.58-15.63,25.2-27.91,43.6-37.13,18.4-8.95,38.69-13.62,60.62-13.62s41.96,4.67,60.23,13.62c18.15,9.08,32.39,21.37,42.97,37.13,10.46,15.63,15.63,32.86,15.63,51.82s-5.17,35.93-15.63,51.55Zm-286.57-107.65c-11.47-17.1-26.97-30.45-46.76-40.47C1184.5,5.08,1162.7,0,1138.88,0s-45.49,4.94-65.53,14.96c-19.91,10.02-35.79,23.37-47.64,40.47-11.72,17.1-17.64,35.79-17.64,56.1s5.92,38.87,17.64,55.83c11.72,16.96,27.47,30.45,47.51,40.34,20.04,9.88,41.97,14.83,65.66,14.83s45.49-5.08,65.28-14.83c19.66-9.88,35.29-23.37,46.76-40.34,11.47-16.96,17.26-35.53,17.26-55.83s-5.8-39-17.26-56.1Zm-8.82,107.65c-10.33,15.49-24.7,27.78-42.85,36.86-18.27,9.22-38.31,13.62-60.36,13.62s-42.09-4.54-60.49-13.62c-18.4-9.08-33.02-21.37-43.73-37-10.58-15.49-16-32.72-16-51.42s5.29-36.06,16-51.82c10.71-15.63,25.2-27.91,43.73-37.13,18.4-8.95,38.56-13.62,60.49-13.62s42.09,4.67,60.36,13.62c18.02,9.08,32.39,21.37,42.85,37.13,10.46,15.63,15.75,32.86,15.75,51.82s-5.29,35.93-15.75,51.55Zm-236.04,48.48h-146.69V7.35c0-3.21-1.64-4.94-4.66-4.94h-.12c-3.28,0-4.92,1.74-4.92,4.94v208.49c0,2.81,1.64,4.27,4.92,4.27h151.48c1.76,0,3.15-.27,4.28-1.07,1.14-.8,1.77-1.87,1.77-3.34v-.13c0-2.67-2.02-4.01-6.05-4.01Z"></path></g><g id="SVGID-2" data-name="SVGID"><path class="cls-1" d="m634.34,6.5c0-2.76,1.63-4.14,4.8-4.14h166.6c2.93,0,4.47,1.38,4.47,4.14v.17c0,2.84-1.46,4.31-4.47,4.31h-161.8v99.88h131.15c3.09,0,4.63,1.38,4.63,4.14v.17c0,2.84-1.54,4.31-4.63,4.31h-131.15v96.34c0,2.84-1.54,4.31-4.63,4.31h-.16c-3.17,0-4.8-1.46-4.8-4.31V6.5h0Z"></path></g></g><g><g><path class="cls-1" d="m353.69,141.19c-.06-2.53-.42-5.06-.94-7.59-2.21-10.67-6.65-20.31-13.66-28.71-2.53-3.08-5.42-5.68-8.14-8.5-3.08-3.15-6.39-5.87-10.06-8.3-9.89-6.55-20.56-10.15-32.4-10.67-1.91-.1-3.76-.1-5.68-.1h-58.29c-20.01,0-40.16,0-60.27.1h-5c-2.79,0-2.79.1-2.79,2.79v123.55c0,.36-.1.62-.19.97-.06.16-.26.45-.42.45-.71.06-1.33.16-2.01.16-12.97,0-25.92.1-38.86,0-6.49,0-12.88-.71-19.27-2.01-15.38-3.15-29.39-9.54-41.91-19.17-4.12-3.24-8.05-6.75-11.45-10.77-8.04-9.7-14.27-20.47-18.46-32.37-3.24-9.18-5-18.72-5.61-28.45v-1.3c.26-4.12.62-8.24,1.3-12.36,1.33-7.43,3.44-14.5,6.23-21.51,4.54-11.39,11.13-21.54,19.43-30.62.68-.71,1.39-1.43,2.17-2.11,9.21-8.4,19.53-14.79,31.07-19.43,11.9-4.74,24.23-7.01,36.91-7.27h59.07V.05C158.72.02,123.94-.05,108.15.05c-3.93,0-7.85.16-11.71.62-6.55.62-13.04,2.01-19.33,3.92-15.51,4.83-29.16,12.88-40.87,24.07-1.91,1.85-3.76,3.76-5.68,5.71-10.09,9.96-17.78,21.51-23.03,34.64-4.02,9.96-6.49,20.37-7.17,31.14-.36,5-.36,10.06-.36,15.05.1,6.49.62,12.97,1.75,19.33,1.59,9.02,4.48,17.68,8.4,26.01,5.06,10.57,11.74,19.95,20.05,28.25,1.3,1.3,2.69,2.72,4.02,4.02,9.54,9.63,20.57,17.06,33.09,22.41,9.28,3.92,18.98,6.45,29.03,7.53,4.28.52,8.66.68,13.04.68h45.15c1.49.1,1.85.36,1.85,1.75v98.09c0,1.23.1,2.47.16,3.7,0,.16.26.42.45.52.26.1.62.16.94.16h14.73c1.39-.06,1.75-.42,1.75-1.91v-100.81c.06-1.04.42-1.49,1.39-1.49h108.92c4.48,0,8.95-.42,13.33-1.3,12.33-2.53,23.09-8.14,32.11-16.96,1.56-1.59,3.15-3.18,4.7-4.74,6.03-6.13,10.87-13.04,14.11-21.02,2.69-6.55,4.38-13.36,4.7-20.47.26-5.94.26-11.81,0-17.78Zm-18.98,17.61c-2.27,10.67-6.91,20.21-14.01,28.51-.88.97-1.82,1.95-2.89,2.79-8.76,7.36-18.62,12.1-29.91,14.11-4.22.68-8.4,1.04-12.72,1.04h-96.4c-1.17,0-2.21-.06-3.34-.06-.36,0-.78-.55-.88-.88,0-.29-.1-.62-.1-.97v-53.2c0-16.74,0-33.54.1-50.25,0-1.23,0-2.43.1-3.67,0-.36.42-.78.88-.78.94,0,1.82-.1,2.69-.1h97.15c1.49,0,2.89,0,4.38.1,9.89.32,19.07,3.05,27.73,7.78,3.67,2.08,7.17,4.54,10.41,7.27.97.78,1.85,1.56,2.63,2.53,7.69,9.08,12.52,19.43,14.6,31.14.88,5,.62,9.8-.42,14.63Z"></path><path class="cls-1" d="m404.81,17.99h-162.85c-1.31,0-2.71-.09-4.03-.09-.44,0-.79-.44-.88-.88,0-.35-.09-.7-.09-.96V1.98c0-.44.09-.88.18-1.31.09-.18.26-.35.44-.44.26-.09.61-.18.96-.18h328.94c1.23,0,2.45.09,3.68.09.35,0,.79.53.88.88,0,.35.09.7.09.96v14.09c0,.44-.09.88-.18,1.31-.09.18-.26.44-.44.44-1.23.09-2.45.18-3.68.18h-163.02Z"></path></g><path class="cls-1" d="m497.46,96.84v15.09c0,.84-.64,1.48-1.48,1.48h-96.25v108.47c0,.69-.59,1.29-1.34,1.29h-15.64c-.74,0-1.29-.59-1.29-1.29v-125.2c0-.15,0-.25.1-.4.15-.4.44-.64.79-.84.2-.05.4-.1.59-.1h113.03c.84,0,1.48.69,1.48,1.48Z"></path></g></g></g></svg> 